<svg width="1280" height="1280" viewBox="0 0 1280 1280" fill="none" xmlns="http://www.w3.org/2000/svg">
<rect width="1280" height="1280" rx="200" fill="url(#paint0_linear_2001_7)"/>
<path d="M403.796 689.335V292.26C403.796 280.437 416.837 273.262 426.824 279.589L962.098 618.707C971.453 624.634 971.38 638.307 961.962 644.134L809.698 738.337C804.878 741.319 798.788 741.329 793.957 738.363L743.493 707.376C734.05 701.578 733.937 687.896 743.282 681.943L802.884 643.969C812.163 638.057 812.131 624.498 802.824 618.63L512.079 435.318C502.118 429.038 489.136 436.159 489.079 447.935L488.143 642.838C488.118 648.011 490.761 652.832 495.136 655.594L993.766 970.373C1006.48 978.399 1000.79 998.057 985.759 998.057H882.752C879.912 998.057 877.129 997.25 874.729 995.731L410.773 702.009C406.429 699.259 403.796 694.476 403.796 689.335Z" fill="white"/>
<path d="M538.696 886.998C547.96 892.892 547.961 906.416 538.696 912.31L426.986 983.376C417 989.729 403.935 982.555 403.935 970.72L403.935 828.587C403.935 816.752 417 809.579 426.986 815.931L538.696 886.998Z" fill="white"/>
<defs>
<linearGradient id="paint0_linear_2001_7" x1="1337.5" y1="640" x2="-127.5" y2="640" gradientUnits="userSpaceOnUse">
<stop stop-color="#3366FF"/>
<stop offset="1" stop-color="#124DFF"/>
</linearGradient>
</defs>
</svg>
