<svg width="600" height="656" viewBox="0 0 600 656" fill="none" xmlns="http://www.w3.org/2000/svg">
<path d="M45.0176 376.03V9.08668C45.0176 5.14576 49.3644 2.7539 52.6935 4.86299L544.847 316.662C547.966 318.638 547.941 323.196 544.802 325.138L396.166 417.096C394.559 418.09 392.529 418.094 390.919 417.105L331.378 380.545C328.23 378.612 328.193 374.051 331.307 372.067L405.287 324.933C408.38 322.962 408.369 318.443 405.267 316.487L127.429 141.313C124.109 139.22 119.781 141.594 119.763 145.519L118.851 335.348C118.843 337.073 119.724 338.68 121.182 339.6L585.382 632.645C589.62 635.32 587.725 641.872 582.713 641.872H462.038C461.091 641.872 460.164 641.604 459.364 641.097L47.3431 380.254C45.8952 379.338 45.0176 377.744 45.0176 376.03Z" fill="white"/>
<path d="M173.925 551.49C177.014 553.455 177.014 557.963 173.925 559.928L52.8228 636.969C49.4941 639.087 45.139 636.696 45.139 632.751L45.139 478.667C45.139 474.722 49.4941 472.331 52.8228 474.449L173.925 551.49Z" fill="white"/>
</svg>
